<svg xmlns="http://www.w3.org/2000/svg" xmlns:xlink="http://www.w3.org/1999/xlink" width="512" height="512" preserveAspectRatio="xMidYMid meet" viewBox="0 0 512 512" style="-ms-transform: rotate(360deg); -webkit-transform: rotate(360deg); transform: rotate(360deg);"><path d="M255.8 218c-21 0-38 17-38 38s17 38 38 38 38-17 38-38-17-38-38-38z" fill="#626262"/><path d="M102 218c-21 0-38 17-38 38s17 38 38 38 38-17 38-38-17-38-38-38z" fill="#626262"/><path d="M410 218c-21 0-38 17-38 38s17 38 38 38 38-17 38-38-17-38-38-38z" fill="#626262"/><rect x="0" y="0" width="512" height="512" fill="rgba(0, 0, 0, 0)" /></svg>